PathFileType	4	(X/Y/Z)	 s10c0203.trc
DataRate	CameraRate	NumFrames	NumMarkers	Units	OrigDataRate	OrigDataStartFrame	OrigNumFrames
200	200	4	49	mm	200	1751	2000
Frame#	Time	racr			lacr			c7			jug			rlel			rdr			llel			ldr			s2			lic			ric			lasi			rasi			rpsi			lpsi			rgt			lgt			rth1			rth2			rth3			rth4			rlfc			rmfc			rsh1			rsh2			rsh3			rsh4			rlmal			rmmal			rcal			rtoe			rmt5			lth1			lth2			lth4			lth3			llfc			lmfc			llmal			lcal			lmt5			lsh1			lsh2			lsh3			lsh4			ltoe			SBIKE			LBIKE			RBIKE			
		X1	Y1	Z1	X2	Y2	Z2	X3	Y3	Z3	X4	Y4	Z4	X5	Y5	Z5	X6	Y6	Z6	X7	Y7	Z7	X8	Y8	Z8	X9	Y9	Z9	X10	Y10	Z10	X11	Y11	Z11	X12	Y12	Z12	X13	Y13	Z13	X14	Y14	Z14	X15	Y15	Z15	X16	Y16	Z16	X17	Y17	Z17	X18	Y18	Z18	X19	Y19	Z19	X20	Y20	Z20	X21	Y21	Z21	X22	Y22	Z22	X23	Y23	Z23	X24	Y24	Z24	X25	Y25	Z25	X26	Y26	Z26	X27	Y27	Z27	X28	Y28	Z28	X29	Y29	Z29	X30	Y30	Z30	X31	Y31	Z31	X32	Y32	Z32	X33	Y33	Z33	X34	Y34	Z34	X35	Y35	Z35	X36	Y36	Z36	X37	Y37	Z37	X38	Y38	Z38	X39	Y39	Z39	X40	Y40	Z40	X41	Y41	Z41	X42	Y42	Z42	X43	Y43	Z43	X44	Y44	Z44	X45	Y45	Z45	X46	Y46	Z46	X47	Y47	Z47	X48	Y48	Z48	X49	Y49	Z49	
1751	8.7550	411.019168	1217.738035	-10.748606	443.916935	1250.360389	-334.468051	414.203521	1280.245082	-167.723401	401.326067	1139.142070	-182.873369	386.968769	968.204027	73.576941	585.383707	908.567870	7.974901	444.552787	1010.673964	-476.529515	618.558118	907.691574	-387.731836	-99.357369	1094.296756	-238.635204	76.047198	1107.914112	-378.395972	53.788897	1111.646130	-99.332765	102.909176	1024.003427	-345.135241	77.939686	1041.587764	-91.732316	-69.760072	1157.704422	-184.351617	-42.519967	1158.982859	-293.543495	-37.733675	1007.937356	-41.155488	-8.370290	972.679686	-419.556971	65.730832	890.522024	-12.165998	147.583239	856.341072	-20.720761	198.568155	787.792095	-28.696407	169.178211	886.776889	-25.799693	284.789605	723.016999	-41.339648	289.162232	712.324865	-156.346218	234.651532	615.966574	-14.843362	249.146464	528.096577	-21.983573	218.472231	447.541178	-28.154513	282.560654	527.601767	-41.519345	206.209923	343.268891	-42.357900	230.494600	361.647967	-121.674646	158.990279	317.773353	-92.483424	400.721830	318.398794	-78.876163	320.228793	280.704779	-19.498814	88.544257	874.361832	-423.978344	167.510018	844.562458	-402.759632	186.912999	874.451323	-393.757767	221.709461	776.248591	-385.296893	301.896938	706.125923	-359.692733	285.099163	704.319645	-238.177281	-3.497872	494.948301	-379.494975	-66.752096	502.186160	-338.746541	31.287500	353.540087	-398.163403	198.449995	654.784409	-395.927944	152.099388	580.041443	-385.100701	72.416470	539.989068	-388.181735	170.957274	561.717517	-357.338847	106.460672	329.399607	-342.971911	-204.490408	831.112902	-224.301500	-78.154602	81.821196	-423.717377	-102.643028	80.627029	-24.434833	
1752	8.7600	413.232709	1217.326939	-12.912782	441.975416	1250.271649	-337.025597	414.192685	1280.416955	-169.647400	401.411367	1139.332808	-184.089030	387.367451	968.046680	72.168586	585.546273	908.523892	7.871509	443.981275	1010.071326	-476.784326	618.758905	907.941672	-388.138018	-99.820821	1091.856613	-237.763252	74.757917	1107.529385	-377.520507	54.588869	1109.476056	-97.324883	102.590093	1023.271898	-344.076744	77.737924	1038.804129	-90.204597	-71.921613	1155.108835	-181.742479	-43.805077	1157.030122	-291.760275	-39.143555	1003.228927	-39.069512	-6.377380	971.294212	-419.170159	63.056495	883.704549	-11.303126	144.167466	848.103090	-20.418531	193.541937	778.615118	-30.339658	166.654407	878.564182	-24.414604	278.280823	713.641278	-42.465710	281.636928	703.642813	-157.615476	227.786682	606.236025	-15.440448	243.394562	518.458777	-22.309937	213.687981	437.557066	-28.694343	277.181002	518.192168	-41.412891	203.310843	333.168621	-42.720135	228.184650	351.269804	-122.139661	156.962768	308.514963	-92.296373	398.213296	307.600489	-79.084597	317.401726	270.368966	-19.750945	92.597784	874.825035	-422.897101	172.358488	848.231114	-400.861562	190.462575	878.564806	-391.095856	229.596353	782.223797	-384.268582	309.730873	715.544918	-358.496489	294.195190	712.847097	-236.399021	2.970283	505.620329	-379.082959	-59.884256	514.320592	-338.486694	34.867798	363.610645	-397.971211	206.421862	664.182661	-395.803041	158.963079	589.263060	-384.528870	79.058305	550.105125	-387.694000	177.608695	570.831562	-356.563093	109.327278	337.734574	-342.868234	-204.478661	831.141976	-224.314263	-78.147323	81.832533	-423.707163	-102.659551	80.619413	-24.447495	
1753	8.7650	415.341214	1216.866577	-14.986752	439.941299	1250.204956	-339.924640	414.073234	1280.611383	-171.600894	401.401677	1139.552516	-185.385952	387.715126	967.967931	70.839589	585.639403	908.427789	7.676259	443.339931	1009.458626	-477.129119	618.911986	908.149598	-388.590274	-100.228377	1089.329273	-236.302550	73.372696	1107.340215	-376.516381	55.286555	1107.413928	-95.386291	102.253925	1022.509251	-343.042714	77.522533	1035.915323	-88.519650	-71.366775	1151.126224	-180.213902	-45.041688	1155.407330	-289.854725	-40.289672	998.321225	-37.114055	-4.475787	969.970214	-418.632801	60.007987	877.489869	-10.175121	140.497680	839.967732	-20.209169	188.227586	769.591680	-31.698151	163.143154	869.067009	-23.896835	271.624206	703.950573	-43.843800	276.247920	695.035885	-157.991825	220.679101	596.671914	-16.112000	237.167264	509.112189	-22.702600	208.447591	427.906964	-29.271832	271.167519	509.072411	-41.439375	199.967388	323.182500	-43.290737	225.050755	341.094217	-122.720336	152.780397	297.450192	-94.338440	395.113890	297.116083	-78.477728	314.104412	260.123504	-20.035925	96.785333	875.959280	-421.742297	177.235680	852.717075	-398.644104	194.029543	883.862702	-388.922526	237.275662	789.287921	-382.982057	317.472262	725.792388	-357.662909	301.306460	721.695732	-235.035111	9.848591	516.123523	-378.605923	-52.515254	525.990377	-338.218667	39.086880	373.332505	-397.770889	213.907379	673.361343	-395.137591	165.979016	598.864503	-383.825974	85.923287	559.971291	-387.179404	184.563221	580.241523	-355.923560	112.761165	345.689033	-342.634409	-204.485092	831.161058	-224.324502	-78.142558	81.826949	-423.713928	-102.635717	80.627225	-24.437953	
1754	8.7700	417.458776	1216.412346	-17.160140	437.846174	1250.160531	-343.011128	413.166524	1280.301112	-172.735780	402.910854	1139.108717	-186.135858	388.097059	967.969285	69.509929	585.752013	908.285366	7.392942	442.714212	1008.783121	-477.568583	619.038123	908.333467	-389.128703	-100.561398	1087.038326	-234.539368	71.848500	1106.965482	-375.503045	56.044167	1105.356596	-93.146184	101.937488	1021.738180	-341.984063	76.818143	1033.971987	-85.206721	-66.694554	1145.190939	-180.507865	-45.866087	1153.659052	-287.644323	-41.312806	993.408961	-35.295554	-2.375938	968.677667	-418.125659	57.183257	871.757437	-9.417275	136.614359	832.128129	-20.017912	182.554189	760.872959	-32.911527	160.143565	860.866619	-22.864765	264.733929	694.283090	-44.448672	270.086582	686.559245	-158.707271	213.461152	587.290247	-16.851982	230.707439	499.792459	-23.233497	202.579968	418.445518	-30.138547	264.794434	500.184638	-41.570414	195.919824	313.615694	-43.958195	221.985598	331.288760	-123.314521	149.678023	289.091324	-94.103926	391.497603	286.599377	-78.855834	310.123976	250.068604	-20.346072	101.527368	878.310267	-420.622294	181.923117	858.227977	-396.413248	197.483584	890.361692	-387.228993	244.198745	796.973028	-381.462863	325.184478	736.678903	-356.752415	308.788151	730.608349	-234.036391	17.068760	526.296388	-378.034089	-45.006805	537.599228	-338.237583	43.712660	383.002648	-397.481142	220.782164	682.397300	-393.773483	173.173177	608.434830	-383.130268	92.998101	569.883078	-386.585167	191.668087	589.662438	-355.320114	116.785087	353.713214	-342.432273	-204.470623	831.181400	-224.280274	-78.132504	81.842709	-423.703029	-102.622426	80.605792	-24.431946	
